<?xml version="1.0" standalone="no"?>
<!DOCTYPE svg PUBLIC "-//W3C//DTD SVG 20010904//EN"
 "http://www.w3.org/TR/2001/REC-SVG-20010904/DTD/svg10.dtd">
<svg version="1.0" xmlns="http://www.w3.org/2000/svg"
 width="293.000000pt" height="293.000000pt" viewBox="0 0 293.000000 293.000000"
 preserveAspectRatio="xMidYMid meet">
<metadata>
Created by potrace 1.11, written by Peter Selinger 2001-2013
</metadata>
<g transform="translate(0.000000,293.000000) scale(0.100000,-0.100000)"
fill="#000000" stroke="none">
<path d="M1302 2920 c-193 -35 -392 -154 -512 -308 -110 -141 -165 -285 -180
-471 -12 -142 -12 -1198 -1 -1299 11 -91 41 -141 106 -172 53 -26 147 -31 206
-12 43 15 102 75 118 121 7 23 11 170 12 455 0 418 1 421 18 361 26 -89 57
-143 120 -206 88 -88 211 -138 336 -139 l50 0 -51 34 c-185 125 -168 403 29
503 190 96 419 -39 421 -247 1 -36 -3 -78 -7 -95 -8 -27 -2 -24 58 35 192 187
283 439 254 699 -38 344 -277 626 -610 721 -85 24 -282 35 -367 20z m216 -440
c80 -15 142 -49 208 -115 70 -70 103 -142 111 -245 l6 -65 -29 26 c-103 92
-272 132 -409 95 -165 -44 -291 -171 -341 -343 -13 -44 -13 -33 -10 142 3 143
8 204 21 245 40 127 144 222 280 256 63 16 99 17 163 4z"/>
<path d="M1905 1232 c-126 -43 -205 -157 -205 -293 0 -205 195 -352 393 -295
223 65 296 348 133 512 -88 87 -207 115 -321 76z"/>
<path d="M1377 403 l-97 -98 0 83 0 82 -45 0 -45 0 0 -226 0 -225 43 3 42 3 5
139 5 140 28 -34 29 -33 101 101 101 101 -29 31 c-16 16 -31 30 -34 30 -4 0
-50 -44 -104 -97z"/>
<path d="M600 430 l0 -40 90 0 c83 0 93 -2 115 -25 34 -33 34 -87 0 -120 -13
-14 -31 -25 -40 -25 -8 0 -15 -3 -15 -6 0 -3 27 -52 61 -109 l60 -104 37 21
c20 12 38 22 40 23 1 1 -16 34 -38 73 l-41 70 26 37 c49 74 27 168 -54 222
-30 20 -46 23 -137 23 l-104 0 0 -40z"/>
<path d="M1010 244 l0 -225 43 3 42 3 3 223 2 222 -45 0 -45 0 0 -226z"/>
<path d="M1580 430 l0 -40 135 0 135 0 0 40 0 40 -135 0 -135 0 0 -40z"/>
<path d="M1940 245 l0 -225 45 0 45 0 0 102 0 102 70 -69 c58 -58 70 -75 70
-102 0 -32 1 -33 45 -33 l45 0 0 225 0 225 -45 0 -45 0 0 -127 0 -127 -40 39
-40 39 -30 -29 -30 -29 0 117 0 117 -45 0 -45 0 0 -225z"/>
<path d="M600 170 l0 -150 45 0 45 0 0 150 0 150 -45 0 -45 0 0 -150z"/>
<path d="M1580 245 l0 -45 135 0 135 0 0 45 0 45 -135 0 -135 0 0 -45z"/>
<path d="M1400 150 l0 -130 45 0 45 0 0 130 0 130 -45 0 -45 0 0 -130z"/>
<path d="M1580 65 l0 -45 135 0 135 0 0 45 0 45 -135 0 -135 0 0 -45z"/>
</g>
</svg>
