<?xml version="1.0" encoding="UTF-8" standalone="no"?>
<!-- Created with Inkscape (http://www.inkscape.org/) -->

<svg
   width="364.85028mm"
   height="186.79865mm"
   viewBox="0 0 364.85028 186.79865"
   version="1.1"
   id="svg1"
   inkscape:version="1.4.2 (ebf0e940d0, 2025-05-08)"
   sodipodi:docname="logo-riken-aip.svg"
   xmlns:inkscape="http://www.inkscape.org/namespaces/inkscape"
   xmlns:sodipodi="http://sodipodi.sourceforge.net/DTD/sodipodi-0.dtd"
   xmlns="http://www.w3.org/2000/svg"
   xmlns:svg="http://www.w3.org/2000/svg">
  <sodipodi:namedview
     id="namedview1"
     pagecolor="#ffffff"
     bordercolor="#000000"
     borderopacity="0.25"
     inkscape:showpageshadow="2"
     inkscape:pageopacity="0.0"
     inkscape:pagecheckerboard="0"
     inkscape:deskcolor="#d1d1d1"
     inkscape:document-units="mm"
     inkscape:zoom="0.23181357"
     inkscape:cx="172.55245"
     inkscape:cy="718.24958"
     inkscape:window-width="1916"
     inkscape:window-height="1054"
     inkscape:window-x="0"
     inkscape:window-y="0"
     inkscape:window-maximized="0"
     inkscape:current-layer="layer1" />
  <defs
     id="defs1">
    <clipPath
       clipPathUnits="userSpaceOnUse"
       id="clipPath4">
      <path
         d="M 0,467.008 H 467.008 V 0 H 0 Z"
         transform="translate(-294.01461,-187.7939)"
         id="path4-7" />
    </clipPath>
    <clipPath
       clipPathUnits="userSpaceOnUse"
       id="clipPath6">
      <path
         d="M 0,467.008 H 467.008 V 0 H 0 Z"
         id="path6-5" />
    </clipPath>
  </defs>
  <g
     inkscape:label="Layer 1"
     inkscape:groupmode="layer"
     id="layer1"
     transform="translate(12.964579,-55.033331)">
    <g
       id="g15"
       transform="matrix(0.26458333,0,0,0.26458333,-12.964579,55.032622)">
      <path
         id="path1"
         d="M 1612.79,40.9375 V 502.891 H 1450.02 V 40.9375 h 162.77"
         style="fill:#2744a0;fill-opacity:1;fill-rule:nonzero;stroke:none"
         transform="matrix(0.13333333,0,0,-0.13333333,0,706.01333)" />
      <path
         id="path2"
         d="m 2501.64,2714.54 c -4.45,-55.83 -19.6,-107.74 -39.6,-157.04 91.21,73.64 183.98,164.26 275.31,278.71 197.11,256.41 319.29,588.29 319.29,936.65 0,839.92 -680.7,1522.22 -1520.59,1522.22 C 714.16,5295.08 42.1289,4643.01 13.7109,3828.01 13.1055,3810.2 6.19141,3678.68 5.78125,3578.64 L 5.83984,1883.55 c 0,0 -0.58593,-31.52 -0.29296,-83.67 0.39062,-69.57 2.34375,-178.32 9.33592,-294.92 10.3906,-173.16 115.2732,-285.94 266.8942,-326.13 41.036,-10.86 85.508,-16.41 132.461,-16.41 220.43,0 386.133,120 399.336,339.96 7.012,116.64 7.93,225.39 8.379,294.96 0.332,50.63 -0.996,86.21 -0.996,86.21 l 0.117,1812.43 c -1.64,317.46 101.543,462.5 101.543,462.5 128.613,202.81 356.913,337.77 613.433,337.77 395.28,0 715.67,-320.43 715.67,-715.66 0,-6.48 -0.15,-55.63 -0.31,-62.07 -118.24,122.81 -357.77,241.72 -573.01,241.72 -478.26,0 -856.505,-378.24 -856.505,-856.53 0,-478.2 373.245,-843.63 851.485,-843.63 25.63,0 58.95,1.13 97.35,4.53 -209.93,85 -351.34,296.41 -332.49,534.22 23.28,293.63 280.2,512.81 573.83,489.53 293.64,-23.24 512.82,-280.19 489.57,-573.82"
         style="fill:#2744a0;fill-opacity:1;fill-rule:nonzero;stroke:none"
         transform="matrix(0.13333333,0,0,-0.13333333,0,706.01333)" />
      <path
         id="path3"
         d="m 2551.64,2259.22 c -310.74,0 -562.65,-251.88 -562.65,-562.62 0,-310.74 251.91,-562.62 562.65,-562.62 310.71,0 562.58,251.88 562.58,562.62 0,310.74 -251.87,562.62 -562.58,562.62 z m 35.63,-1087.89 c 0,40 0,40 0,80 0,-40 0,-40 0,-80"
         style="fill:#03a86f;fill-opacity:1;fill-rule:nonzero;stroke:none"
         transform="matrix(0.13333333,0,0,-0.13333333,0,706.01333)" />
      <path
         id="path4"
         d="M 739.297,40.9375 H 902.07 v 812.266 H 739.297 Z"
         style="fill:#2744a0;fill-opacity:1;fill-rule:nonzero;stroke:none"
         transform="matrix(0.13333333,0,0,-0.13333333,0,706.01333)" />
      <path
         id="path5"
         d="M 1228.59,853.203 H 1065.84 V 40.9375 h 162.75 V 853.203"
         style="fill:#2744a0;fill-opacity:1;fill-rule:nonzero;stroke:none"
         transform="matrix(0.13333333,0,0,-0.13333333,0,706.01333)" />
      <path
         id="path6"
         d="m 2593.32,614.453 v 238.75 H 2430.59 V 40.9375 h 162.73 v 254.3755 319.14"
         style="fill:#2744a0;fill-opacity:1;fill-rule:nonzero;stroke:none"
         transform="matrix(0.13333333,0,0,-0.13333333,0,706.01333)" />
      <path
         id="path7"
         d="M 3014.38,853.203 H 2851.57 V 385.273 L 2708.99,527.891 2593.87,412.734 2851.57,155.078 V 40.9375 h 162.81 0.47 l -0.47,812.2655"
         style="fill:#2744a0;fill-opacity:1;fill-rule:nonzero;stroke:none"
         transform="matrix(0.13333333,0,0,-0.13333333,0,706.01333)" />
      <path
         id="path8"
         d="m 1345.14,428.516 364.69,365.39 -116.04,115.938 -364.57,-364.805 115.92,-116.523"
         style="fill:#2744a0;fill-opacity:1;fill-rule:nonzero;stroke:none"
         transform="matrix(0.13333333,0,0,-0.13333333,0,706.01333)" />
      <path
         id="path9"
         d="m 306.406,702.031 c 68.574,-17.851 118.262,-78.515 118.262,-152.343 0,-29.454 -8.027,-56.954 -21.973,-80.586 -27.402,-46.524 -89.355,-79.766 -135.488,-81.446 v 0 L 490.625,0 633.203,81.7188 484.063,339.609 c -0.176,-0.195 0.214,0.157 0,0 54.824,45.547 101.445,128.047 101.445,209.102 0,83.203 -33.594,158.516 -87.949,213.203 -12.52,12.617 -26.075,24.102 -40.547,34.297 0,0 -56.758,44.648 -138.008,52.148 -61.172,5.625 -106.836,4.727 -147.52,4.727 H 0.46875 V 709.063 H 165.488 c 125.742,0 140.918,-7.032 140.918,-7.032"
         style="fill:#2744a0;fill-opacity:1;fill-rule:nonzero;stroke:none"
         transform="matrix(0.13333333,0,0,-0.13333333,0,706.01333)" />
      <path
         id="path10"
         d="M 0,319.688 V 581.172 H 162.793 V 40.9375 H 0 V 319.688"
         style="fill:#2744a0;fill-opacity:1;fill-rule:nonzero;stroke:none"
         transform="matrix(0.13333333,0,0,-0.13333333,0,706.01333)" />
      <path
         id="path11"
         d="M 2266.96,853.203 H 1776.18 V 696.094 h 490.78 v 157.109"
         style="fill:#2744a0;fill-opacity:1;fill-rule:nonzero;stroke:none"
         transform="matrix(0.13333333,0,0,-0.13333333,0,706.01333)" />
      <path
         id="path12"
         d="M 2266.96,196.094 H 1776.18 V 40.9375 h 490.78 V 196.094"
         style="fill:#2744a0;fill-opacity:1;fill-rule:nonzero;stroke:none"
         transform="matrix(0.13333333,0,0,-0.13333333,0,706.01333)" />
      <path
         id="path13"
         d="M 2266.96,524.609 H 1776.18 V 367.617 h 490.78 v 156.992"
         style="fill:#2744a0;fill-opacity:1;fill-rule:nonzero;stroke:none"
         transform="matrix(0.13333333,0,0,-0.13333333,0,706.01333)" />
    </g>
    <g
       id="g14"
       transform="matrix(0.73725713,0,0,0.73725713,17.662768,-73.941134)">
      <path
         id="path1-9"
         d="m 0,0 -56.724,-91.419 h 24.743 L 0,-39.875 19.975,-72.062 H 0 l -12.009,-19.357 h 68.737 z"
         style="fill:#024ea2;fill-opacity:1;fill-rule:nonzero;stroke:none"
         transform="matrix(1.3333333,0,0,-1.3333333,222.29881,239.05425)" />
      <path
         id="path2-1"
         d="m 230.942,187.794 h 21.023 v 70.396 h -21.023 z"
         style="fill:#024ea2;fill-opacity:1;fill-rule:nonzero;stroke:none"
         transform="matrix(1.3333333,0,0,-1.3333333,-11.33852,611.33879)" />
      <path
         id="path3-2"
         d="m 0,0 h -21.022 v 43.776 h 41.177 c 7.339,0 13.309,5.972 13.309,13.31 0,7.339 -5.97,13.31 -13.309,13.31 H -42.05 v 21.023 h 62.205 c 18.932,0 34.334,-15.401 34.334,-34.333 C 54.489,38.153 39.087,22.75 20.155,22.75 H 0 Z"
         style="fill:#024ea2;fill-opacity:1;fill-rule:nonzero;stroke:none"
         transform="matrix(1.3333333,0,0,-1.3333333,380.68095,360.94692)"
         clip-path="url(#clipPath4)" />
      <path
         id="path5-7"
         d="m 230.942,258.19 h -21.023 v 21.023 h 21.023 z"
         style="fill:#72bf44;fill-opacity:1;fill-rule:nonzero;stroke:none"
         transform="matrix(1.3333333,0,0,-1.3333333,-11.33852,611.33879)"
         clip-path="url(#clipPath6)" />
    </g>
  </g>
</svg>
