<?xml version="1.0" encoding="UTF-8" standalone="no"?>
<svg
   xmlns:dc="http://purl.org/dc/elements/1.1/"
   xmlns:cc="http://creativecommons.org/ns#"
   xmlns:rdf="http://www.w3.org/1999/02/22-rdf-syntax-ns#"
   xmlns:svg="http://www.w3.org/2000/svg"
   xmlns="http://www.w3.org/2000/svg"
   xmlns:sodipodi="http://sodipodi.sourceforge.net/DTD/sodipodi-0.dtd"
   xmlns:inkscape="http://www.inkscape.org/namespaces/inkscape"
   inkscape:version="1.0 (1.0+r73+1)"
   sodipodi:docname="avatar-1577909 (copy).svg"
   id="svg16"
   viewBox="0 0 250 250"
   version="1.1">
  <metadata
     id="metadata22">
    <rdf:RDF>
      <cc:Work
         rdf:about="">
        <dc:format>image/svg+xml</dc:format>
        <dc:type
           rdf:resource="http://purl.org/dc/dcmitype/StillImage" />
      </cc:Work>
    </rdf:RDF>
  </metadata>
  <defs
     id="defs20" />
  <sodipodi:namedview
     inkscape:current-layer="svg16"
     inkscape:window-maximized="1"
     inkscape:window-y="27"
     inkscape:window-x="67"
     inkscape:cy="128.66214"
     inkscape:cx="94.924699"
     inkscape:zoom="2.483359"
     showgrid="false"
     id="namedview18"
     inkscape:window-height="1025"
     inkscape:window-width="1853"
     inkscape:pageshadow="2"
     inkscape:pageopacity="0"
     guidetolerance="10"
     gridtolerance="10"
     objecttolerance="10"
     borderopacity="1"
     bordercolor="#666666"
     pagecolor="#ffffff" />
  <g
     id="g14"
     transform="translate(-266.43 -401.65)">
    <g
       id="g4"
       fill="#95bbdf"
       transform="matrix(.68333 0 0 .68333 581.94 550.77)">
      <rect
         id="rect2"
         fill="#95bbdf"
         color="#000000"
         ry="0"
         rx="0"
         height="365.85"
         width="365.85"
         y="-218.23"
         x="-461.73" />
    </g>
    <g
       id="g12"
       fill="#FFF"
       transform="matrix(.3492 0 0 .3492 284.57 419.79)">
      <g
         id="g10"
         fill="#FFF">
        <path
           id="path6"
           d="m306 325.99c90.56-0.01 123.15-90.68 131.68-165.17 10.51-91.76-32.88-160.82-131.68-160.82-98.78 0-142.19 69.055-131.68 160.82 8.54 74.484 41.114 165.18 131.68 165.17z" />
        <path
           id="path8"
           d="m550.98 541.91c-0.99-28.904-4.377-57.939-9.421-86.393-6.111-34.469-13.889-85.002-43.983-107.46-17.404-12.988-39.941-17.249-59.865-25.081-9.697-3.81-18.384-7.594-26.537-11.901-27.518 30.176-63.4 45.962-105.19 45.964-41.774 0-77.652-15.786-105.17-45.964-8.153 4.308-16.84 8.093-26.537 11.901-19.924 7.832-42.461 12.092-59.863 25.081-30.096 22.463-37.873 72.996-43.983 107.46-5.045 28.454-8.433 57.489-9.422 86.393-0.766 22.387 10.288 25.525 29.017 32.284 23.453 8.458 47.666 14.737 72.041 19.884 47.077 9.941 95.603 17.582 143.92 17.924 48.318-0.343 96.844-7.983 143.92-17.924 24.375-5.145 48.59-11.424 72.041-19.884 18.736-6.757 29.789-9.895 29.023-32.284z" />
      </g>
    </g>
  </g>
  <path
     id="path36"
     d="M 0.29480485,124.83668 V 0.00575246 H 125.12573 249.95665 V 124.83668 249.6676 H 125.12573 0.29480485 Z M 143.24635,230.95053 c 27.49763,-2.98872 61.7054,-11.61083 65.57306,-16.52777 1.58403,-2.01376 1.80575,-3.568 1.54688,-10.84337 -0.32931,-9.25467 -1.32962,-17.45988 -3.73324,-30.62241 -3.97404,-21.76242 -8.86086,-30.91221 -19.31185,-36.15834 -1.11763,-0.56101 -5.28537,-2.14366 -9.26165,-3.51697 -3.97628,-1.37332 -9.26748,-3.39984 -11.75822,-4.50338 l -4.52863,-2.00644 -2.79936,2.59177 c -6.62355,6.13239 -13.8785,9.98391 -22.97524,12.19713 -4.21357,1.02516 -14.34011,1.24149 -19.3657,0.4137 -10.03036,-1.65214 -19.116006,-6.2157 -25.999747,-13.05921 -1.142517,-1.13584 -2.248587,-2.06516 -2.457933,-2.06516 -0.209345,0 -2.083255,0.79363 -4.164243,1.76363 -2.080988,0.97 -7.045324,2.88402 -11.03186,4.25338 -10.600682,3.64131 -13.402774,5.10672 -17.315257,9.05541 -6.579411,6.64029 -9.730567,15.35781 -13.270764,36.71295 -1.911834,11.53257 -2.72762,19.36007 -2.786574,26.73731 -0.04469,5.59214 0.03718,6.40913 0.786795,7.85226 1.214283,2.33769 3.925836,3.78307 12.374421,6.59614 16.713439,5.56496 41.127207,10.20726 62.492822,11.88305 4.30373,0.33757 22.44002,-0.15085 27.98629,-0.75368 z m -8.36233,-100.02078 c 16.61876,-4.38591 27.69937,-18.13526 33.48846,-41.554064 7.34229,-29.702028 1.84807,-52.593214 -15.3283,-63.864044 -7.67783,-5.038059 -16.54887,-7.377967 -27.98998,-7.382898 -6.46917,-0.0028 -10.38463,0.464171 -15.63301,1.864401 -16.114715,4.29929 -26.520359,15.883402 -30.08816,33.495724 -0.99766,4.924914 -0.991846,18.201561 0.01079,24.636881 4.007854,25.72404 13.601904,42.70194 28.28265,50.0498 3.24849,1.62589 7.35631,2.94631 10.85503,3.48925 3.929,0.60971 12.81612,0.21144 16.40252,-0.73505 z"
     style="fill:#cccccc;fill-opacity:1;stroke-width:0.40268" />
</svg>
